{
 "cells": [
  {
   "cell_type": "code",
   "execution_count": 1,
   "metadata": {},
   "outputs": [],
   "source": [
    "import os\n",
    "import glob\n",
    "import pandas as pd\n",
    "import textgrids\n",
    "import tqdm\n",
    "from utils import flac_to_wav"
   ]
  },
  {
   "cell_type": "markdown",
   "metadata": {},
   "source": [
    "# Create Subset json"
   ]
  },
  {
   "cell_type": "markdown",
   "metadata": {},
   "source": [
    "## Keep files in subset"
   ]
  },
  {
   "cell_type": "code",
   "execution_count": 7,
   "metadata": {},
   "outputs": [],
   "source": [
    "import ast\n",
    "\n",
    "\n",
    "def get_subset_df(json_dir=None):\n",
    "    if not json_dir:\n",
    "        json_dir = '/home/knoriy/Documents/laion/split_peoples_speech/flac_train_manifest.jsonl'\n",
    "\n",
    "    with open(json_dir, 'r') as json_file:\n",
    "        json_list = list(json_file)\n",
    "\n",
    "    df = pd.DataFrame.from_dict(json_list)\n",
    "    df[0] = df[0].apply(lambda x: ast.literal_eval(x))\n",
    "\n",
    "    for keys in df[0][0].keys():\n",
    "        df[keys] = [path[0][keys] for path in df.iloc()]\n",
    "\n",
    "    subset = glob.glob('/home/knoriy/Documents/laion/split_peoples_speech/subset/**/*.flac', recursive=True)\n",
    "    subset = [os.path.join(*(dir.split(os.path.sep)[7:])) for dir in subset]\n",
    "\n",
    "    subset_df = df[df['audio_filepath'].isin(subset)].reset_index(drop=True)\n",
    "    subset_df = subset_df.drop(0, axis=1)\n",
    "\n",
    "    return subset_df\n",
    "\n",
    "get_subset_df().to_csv('/home/knoriy/Documents/laion/split_peoples_speech/subset.tsv', sep='\\t', header=None, index=False)"
   ]
  },
  {
   "cell_type": "markdown",
   "metadata": {},
   "source": [
    "# prepare MFA"
   ]
  },
  {
   "cell_type": "code",
   "execution_count": 59,
   "metadata": {},
   "outputs": [],
   "source": [
    "# Clean old wavs ONLY FOR TESTING\n",
    "import glob\n",
    "\n",
    "# old_wav_path = glob.glob(f'/home/knoriy/Documents/laion/split_peoples_speech/subset/**/*.wav', recursive=True)\n",
    "# for wav_path in old_wav_path:\n",
    "#     os.remove(wav_path)\n",
    "\n",
    "# old_txt_path = glob.glob(f'/home/knoriy/Documents/laion/split_peoples_speech/subset/**/*.txt', recursive=True)\n",
    "# for txt_path in old_txt_path:\n",
    "#     os.remove(txt_path)\n",
    "\n",
    "old_txt_path = glob.glob(f'/home/knoriy/Documents/laion/split_peoples_speech/subset_split/**/*.txt', recursive=True)\n",
    "for txt_path in old_txt_path:\n",
    "    os.remove(txt_path)"
   ]
  },
  {
   "cell_type": "code",
   "execution_count": 52,
   "metadata": {},
   "outputs": [],
   "source": [
    "def generate_txt(df):\n",
    "    for row in tqdm.tqdm(df.iloc, desc=\"Generating .txt files for MFA\"):\n",
    "        open(f'./subset/{row[\"audio_filepath\"].split(\".\")[0]}.txt', 'w').write(row['text'])"
   ]
  },
  {
   "cell_type": "markdown",
   "metadata": {},
   "source": [
    "## Generate TextGrid alignments"
   ]
  },
  {
   "cell_type": "code",
   "execution_count": 10,
   "metadata": {},
   "outputs": [],
   "source": [
    "def generate_alignments(src, dest, overwrite=True):\n",
    "    # if os.path.exists(dest): raise Warning(\"Desitination Folder already exists\")\n",
    "    os.system(f'mfa align --clean {src} english english {dest}')\n",
    "\n",
    "def generate_textgrids(dataset_root_path):\n",
    "    generate_alignments(dataset_root_path, f\"{dataset_root_path}_textgrids\")\n",
    "\n",
    "# generate_textgrids('/home/knoriy/Documents/laion/split_peoples_speech/subset/')"
   ]
  },
  {
   "cell_type": "markdown",
   "metadata": {},
   "source": [
    "# Split audio into 5-10 seconds"
   ]
  },
  {
   "cell_type": "code",
   "execution_count": 11,
   "metadata": {},
   "outputs": [],
   "source": [
    "def get_potential_splits(textgrid_words):\n",
    "\n",
    "    potential_split_points = []\n",
    "    for index, word in enumerate(textgrid_words):\n",
    "        if word.text != \"\":\n",
    "            continue\n",
    "        if word.xmin > 5 and word.xmax < 10: # find split that are longer than 5 sec and shorter than 10\n",
    "            potential_split_points.append(index)\n",
    "            # print(word.xmin, word.xmax)\n",
    "\n",
    "    return potential_split_points\n",
    "\n",
    "def get_longest_silance(textgrid_words):\n",
    "    potential_split_points = get_potential_splits(textgrid_words)\n",
    "\n",
    "    silance_length = 0\n",
    "    word_index = None\n",
    "    time = 0\n",
    "\n",
    "    for index in potential_split_points:\n",
    "        silance = textgrid_words[index]\n",
    "        \n",
    "        if (silance.xmax - silance.xmin) > silance_length:\n",
    "            silance_length = (silance.xmax - silance.xmin)\n",
    "            word_index = index\n",
    "\n",
    "            time = (silance.xmax + silance.xmin) / 2\n",
    "\n",
    "    return word_index, time"
   ]
  },
  {
   "cell_type": "code",
   "execution_count": 60,
   "metadata": {},
   "outputs": [],
   "source": [
    "def split_audio(root_textgrid_path, root_wav_path):\n",
    "    textgrid_paths = glob.glob(f'{root_textgrid_path}/**/*.TextGrid', recursive=True)\n",
    "\n",
    "    for path in tqdm.tqdm(textgrid_paths, desc='spliting flac files into 5-10 seconds'):\n",
    "        textgrid = textgrids.TextGrid(path)\n",
    "        textgrid_words = textgrid.get('words')\n",
    "\n",
    "        word_index, split_time = get_longest_silance(textgrid_words)\n",
    "\n",
    "        # get src path\n",
    "        wav_paths = os.path.split(path)\n",
    "        wav_file_name = f'{str(wav_paths[-1]).split(\".\")[0]}.flac'\n",
    "        wav_folder_name = os.path.split(wav_paths[0])[-1]\n",
    "\n",
    "        src_wav_path = os.path.join(root_wav_path, wav_folder_name, wav_file_name) # remove aligned and replace file extension\n",
    "\n",
    "        # create destinaltion path\n",
    "        processed_path = os.path.join(f'{root_wav_path}_split', wav_folder_name)\n",
    "        os.makedirs(processed_path, exist_ok=True)\n",
    "        dest_path = os.path.join(processed_path, f\"{wav_file_name}\")\n",
    "\n",
    "        # Split audio\n",
    "        returned_path = os.system(f\"ffmpeg -i {src_wav_path} -f segment -segment_times {split_time} {dest_path}_%02d.flac\")\n",
    "\n",
    "        # Split text\n",
    "        sentences = [[word.text for word in textgrid_words[:word_index]], [word.text for word in textgrid_words[word_index:]]]\n",
    "        for sentence in sentences:\n",
    "            with open(f'{dest_path}_%03d.txt', 'w') as file:\n",
    "                file.write(' '.join(sentence))\n",
    "\n"
   ]
  },
  {
   "cell_type": "code",
   "execution_count": 61,
   "metadata": {},
   "outputs": [
    {
     "name": "stderr",
     "output_type": "stream",
     "text": [
      "spliting flac files into 5-10 seconds:   0%|          | 0/23 [00:00<?, ?it/s]ffmpeg version 4.4.1 Copyright (c) 2000-2021 the FFmpeg developers\n",
      "  built with gcc 10.3.0 (conda-forge gcc 10.3.0-16)\n",
      "  configuration: --prefix=/home/knoriy/anaconda3/envs/aligner --cc=/home/conda/feedstock_root/build_artifacts/ffmpeg_1653050584957/_build_env/bin/x86_64-conda-linux-gnu-cc --disable-doc --disable-openssl --enable-avresample --enable-demuxer=dash --enable-gnutls --enable-gpl --enable-hardcoded-tables --enable-libfreetype --enable-libopenh264 --enable-vaapi --enable-libx264 --enable-libx265 --enable-libaom --enable-libsvtav1 --enable-libxml2 --enable-libvpx --enable-pic --enable-pthreads --enable-shared --disable-static --enable-version3 --enable-zlib --enable-libmp3lame --pkg-config=/home/conda/feedstock_root/build_artifacts/ffmpeg_1653050584957/_build_env/bin/pkg-config\n",
      "  libavutil      56. 70.100 / 56. 70.100\n",
      "  libavcodec     58.134.100 / 58.134.100\n",
      "  libavformat    58. 76.100 / 58. 76.100\n",
      "  libavdevice    58. 13.100 / 58. 13.100\n",
      "  libavfilter     7.110.100 /  7.110.100\n",
      "  libavresample   4.  0.  0 /  4.  0.  0\n",
      "  libswscale      5.  9.100 /  5.  9.100\n",
      "  libswresample   3.  9.100 /  3.  9.100\n",
      "  libpostproc    55.  9.100 / 55.  9.100\n",
      "Input #0, flac, from '/home/knoriy/Documents/laion/split_peoples_speech/subset/Youth_Orchestra_of_Central_Jersey_1_DOT_17/Youth_Orchestra_of_Central_Jersey_1_DOT_17_DOT_HD_DOT_mp3_00053.flac':\n",
      "  Metadata:\n",
      "    comment         : Processed by SoX\n",
      "    encoder         : Lavf58.29.100\n",
      "  Duration: 00:00:14.68, start: 0.000000, bitrate: 128 kb/s\n",
      "  Stream #0:0: Audio: flac, 16000 Hz, mono, s16\n",
      "Stream mapping:\n",
      "  Stream #0:0 -> #0:0 (flac (native) -> flac (native))\n",
      "Press [q] to stop, [?] for help\n",
      "[segment @ 0x55f013810440] Opening '/home/knoriy/Documents/laion/split_peoples_speech/subset_split/Youth_Orchestra_of_Central_Jersey_1_DOT_17/Youth_Orchestra_of_Central_Jersey_1_DOT_17_DOT_HD_DOT_mp3_00053.flac_00.flac' for writing\n",
      "Output #0, segment, to '/home/knoriy/Documents/laion/split_peoples_speech/subset_split/Youth_Orchestra_of_Central_Jersey_1_DOT_17/Youth_Orchestra_of_Central_Jersey_1_DOT_17_DOT_HD_DOT_mp3_00053.flac_%02d.flac':\n",
      "  Metadata:\n",
      "    comment         : Processed by SoX\n",
      "    encoder         : Lavf58.76.100\n",
      "  Stream #0:0: Audio: flac, 16000 Hz, mono, s16, 128 kb/s\n",
      "    Metadata:\n",
      "      encoder         : Lavc58.134.100 flac\n",
      "[segment @ 0x55f013810440] Opening '/home/knoriy/Documents/laion/split_peoples_speech/subset_split/Youth_Orchestra_of_Central_Jersey_1_DOT_17/Youth_Orchestra_of_Central_Jersey_1_DOT_17_DOT_HD_DOT_mp3_00053.flac_01.flac' for writing\n",
      "size=N/A time=00:00:14.68 bitrate=N/A speed=1.29e+03x    \n",
      "video:0kB audio:222kB subtitle:0kB other streams:0kB global headers:0kB muxing overhead: unknown\n",
      "ffmpeg version 4.4.1 Copyright (c) 2000-2021 the FFmpeg developers\n",
      "  built with gcc 10.3.0 (conda-forge gcc 10.3.0-16)\n",
      "  configuration: --prefix=/home/knoriy/anaconda3/envs/aligner --cc=/home/conda/feedstock_root/build_artifacts/ffmpeg_1653050584957/_build_env/bin/x86_64-conda-linux-gnu-cc --disable-doc --disable-openssl --enable-avresample --enable-demuxer=dash --enable-gnutls --enable-gpl --enable-hardcoded-tables --enable-libfreetype --enable-libopenh264 --enable-vaapi --enable-libx264 --enable-libx265 --enable-libaom --enable-libsvtav1 --enable-libxml2 --enable-libvpx --enable-pic --enable-pthreads --enable-shared --disable-static --enable-version3 --enable-zlib --enable-libmp3lame --pkg-config=/home/conda/feedstock_root/build_artifacts/ffmpeg_1653050584957/_build_env/bin/pkg-config\n",
      "  libavutil      56. 70.100 / 56. 70.100\n",
      "  libavcodec     58.134.100 / 58.134.100\n",
      "  libavformat    58. 76.100 / 58. 76.100\n",
      "  libavdevice    58. 13.100 / 58. 13.100\n",
      "  libavfilter     7.110.100 /  7.110.100\n",
      "  libavresample   4.  0.  0 /  4.  0.  0\n",
      "  libswscale      5.  9.100 /  5.  9.100\n",
      "  libswresample   3.  9.100 /  3.  9.100\n",
      "  libpostproc    55.  9.100 / 55.  9.100\n",
      "Input #0, flac, from '/home/knoriy/Documents/laion/split_peoples_speech/subset/Youth_Orchestra_of_Central_Jersey_1_DOT_17/Youth_Orchestra_of_Central_Jersey_1_DOT_17_DOT_HD_DOT_mp3_00011.flac':\n",
      "  Metadata:\n",
      "    comment         : Processed by SoX\n",
      "    encoder         : Lavf58.29.100\n",
      "  Duration: 00:00:14.95, start: 0.000000, bitrate: 147 kb/s\n",
      "  Stream #0:0: Audio: flac, 16000 Hz, mono, s16\n",
      "Stream mapping:\n",
      "  Stream #0:0 -> #0:0 (flac (native) -> flac (native))\n",
      "Press [q] to stop, [?] for help\n",
      "[segment @ 0x563fa94b8440] Opening '/home/knoriy/Documents/laion/split_peoples_speech/subset_split/Youth_Orchestra_of_Central_Jersey_1_DOT_17/Youth_Orchestra_of_Central_Jersey_1_DOT_17_DOT_HD_DOT_mp3_00011.flac_00.flac' for writing\n",
      "Output #0, segment, to '/home/knoriy/Documents/laion/split_peoples_speech/subset_split/Youth_Orchestra_of_Central_Jersey_1_DOT_17/Youth_Orchestra_of_Central_Jersey_1_DOT_17_DOT_HD_DOT_mp3_00011.flac_%02d.flac':\n",
      "  Metadata:\n",
      "    comment         : Processed by SoX\n",
      "    encoder         : Lavf58.76.100\n",
      "  Stream #0:0: Audio: flac, 16000 Hz, mono, s16, 128 kb/s\n",
      "    Metadata:\n",
      "      encoder         : Lavc58.134.100 flac\n",
      "[segment @ 0x563fa94b8440] Opening '/home/knoriy/Documents/laion/split_peoples_speech/subset_split/Youth_Orchestra_of_Central_Jersey_1_DOT_17/Youth_Orchestra_of_Central_Jersey_1_DOT_17_DOT_HD_DOT_mp3_00011.flac_01.flac' for writing\n",
      "size=N/A time=00:00:14.95 bitrate=N/A speed= 500x    \n",
      "video:0kB audio:261kB subtitle:0kB other streams:0kB global headers:0kB muxing overhead: unknown\n",
      "ffmpeg version 4.4.1 Copyright (c) 2000-2021 the FFmpeg developers\n",
      "  built with gcc 10.3.0 (conda-forge gcc 10.3.0-16)\n",
      "  configuration: --prefix=/home/knoriy/anaconda3/envs/aligner --cc=/home/conda/feedstock_root/build_artifacts/ffmpeg_1653050584957/_build_env/bin/x86_64-conda-linux-gnu-cc --disable-doc --disable-openssl --enable-avresample --enable-demuxer=dash --enable-gnutls --enable-gpl --enable-hardcoded-tables --enable-libfreetype --enable-libopenh264 --enable-vaapi --enable-libx264 --enable-libx265 --enable-libaom --enable-libsvtav1 --enable-libxml2 --enable-libvpx --enable-pic --enable-pthreads --enable-shared --disable-static --enable-version3 --enable-zlib --enable-libmp3lame --pkg-config=/home/conda/feedstock_root/build_artifacts/ffmpeg_1653050584957/_build_env/bin/pkg-config\n",
      "  libavutil      56. 70.100 / 56. 70.100\n",
      "  libavcodec     58.134.100 / 58.134.100\n",
      "  libavformat    58. 76.100 / 58. 76.100\n",
      "  libavdevice    58. 13.100 / 58. 13.100\n",
      "  libavfilter     7.110.100 /  7.110.100\n",
      "  libavresample   4.  0.  0 /  4.  0.  0\n",
      "  libswscale      5.  9.100 /  5.  9.100\n",
      "  libswresample   3.  9.100 /  3.  9.100\n",
      "  libpostproc    55.  9.100 / 55.  9.100\n",
      "Input #0, flac, from '/home/knoriy/Documents/laion/split_peoples_speech/subset/YourSceneYourCenter-HealthBeatShingles/SeniorSceneShingles_DOT_mp3_00030.flac':\n",
      "  Metadata:\n",
      "    comment         : Processed by SoX\n",
      "    encoder         : Lavf58.29.100\n",
      "  Duration: 00:00:14.94, start: 0.000000, bitrate: 142 kb/s\n",
      "  Stream #0:0: Audio: flac, 16000 Hz, mono, s16\n",
      "Stream mapping:\n",
      "  Stream #0:0 -> #0:0 (flac (native) -> flac (native))\n",
      "Press [q] to stop, [?] for help\n",
      "[segment @ 0x560532823400] Opening '/home/knoriy/Documents/laion/split_peoples_speech/subset_split/YourSceneYourCenter-HealthBeatShingles/SeniorSceneShingles_DOT_mp3_00030.flac_00.flac' for writing\n",
      "Output #0, segment, to '/home/knoriy/Documents/laion/split_peoples_speech/subset_split/YourSceneYourCenter-HealthBeatShingles/SeniorSceneShingles_DOT_mp3_00030.flac_%02d.flac':\n",
      "  Metadata:\n",
      "    comment         : Processed by SoX\n",
      "    encoder         : Lavf58.76.100\n",
      "  Stream #0:0: Audio: flac, 16000 Hz, mono, s16, 128 kb/s\n",
      "    Metadata:\n",
      "      encoder         : Lavc58.134.100 flac\n",
      "[segment @ 0x560532823400] Opening '/home/knoriy/Documents/laion/split_peoples_speech/subset_split/YourSceneYourCenter-HealthBeatShingles/SeniorSceneShingles_DOT_mp3_00030.flac_01.flac' for writing\n",
      "size=N/A time=00:00:14.94 bitrate=N/A speed=1.08e+03x    \n",
      "video:0kB audio:252kB subtitle:0kB other streams:0kB global headers:0kB muxing overhead: unknown\n",
      "spliting flac files into 5-10 seconds:  13%|█▎        | 3/23 [00:00<00:00, 24.75it/s]ffmpeg version 4.4.1 Copyright (c) 2000-2021 the FFmpeg developers\n",
      "  built with gcc 10.3.0 (conda-forge gcc 10.3.0-16)\n",
      "  configuration: --prefix=/home/knoriy/anaconda3/envs/aligner --cc=/home/conda/feedstock_root/build_artifacts/ffmpeg_1653050584957/_build_env/bin/x86_64-conda-linux-gnu-cc --disable-doc --disable-openssl --enable-avresample --enable-demuxer=dash --enable-gnutls --enable-gpl --enable-hardcoded-tables --enable-libfreetype --enable-libopenh264 --enable-vaapi --enable-libx264 --enable-libx265 --enable-libaom --enable-libsvtav1 --enable-libxml2 --enable-libvpx --enable-pic --enable-pthreads --enable-shared --disable-static --enable-version3 --enable-zlib --enable-libmp3lame --pkg-config=/home/conda/feedstock_root/build_artifacts/ffmpeg_1653050584957/_build_env/bin/pkg-config\n",
      "  libavutil      56. 70.100 / 56. 70.100\n",
      "  libavcodec     58.134.100 / 58.134.100\n",
      "  libavformat    58. 76.100 / 58. 76.100\n",
      "  libavdevice    58. 13.100 / 58. 13.100\n",
      "  libavfilter     7.110.100 /  7.110.100\n",
      "  libavresample   4.  0.  0 /  4.  0.  0\n",
      "  libswscale      5.  9.100 /  5.  9.100\n",
      "  libswresample   3.  9.100 /  3.  9.100\n",
      "  libpostproc    55.  9.100 / 55.  9.100\n",
      "Input #0, flac, from '/home/knoriy/Documents/laion/split_peoples_speech/subset/Yongara/Yongara_DOT_mp3_00023.flac':\n",
      "  Metadata:\n",
      "    comment         : Processed by SoX\n",
      "    encoder         : Lavf58.29.100\n",
      "  Duration: 00:00:12.64, start: 0.000000, bitrate: 113 kb/s\n",
      "  Stream #0:0: Audio: flac, 16000 Hz, mono, s16\n",
      "Stream mapping:\n",
      "  Stream #0:0 -> #0:0 (flac (native) -> flac (native))\n",
      "Press [q] to stop, [?] for help\n",
      "[segment @ 0x5562dfc7b340] Opening '/home/knoriy/Documents/laion/split_peoples_speech/subset_split/Yongara/Yongara_DOT_mp3_00023.flac_00.flac' for writing\n",
      "Output #0, segment, to '/home/knoriy/Documents/laion/split_peoples_speech/subset_split/Yongara/Yongara_DOT_mp3_00023.flac_%02d.flac':\n",
      "  Metadata:\n",
      "    comment         : Processed by SoX\n",
      "    encoder         : Lavf58.76.100\n",
      "  Stream #0:0: Audio: flac, 16000 Hz, mono, s16, 128 kb/s\n",
      "    Metadata:\n",
      "      encoder         : Lavc58.134.100 flac\n",
      "[segment @ 0x5562dfc7b340] Opening '/home/knoriy/Documents/laion/split_peoples_speech/subset_split/Yongara/Yongara_DOT_mp3_00023.flac_01.flac' for writing\n",
      "size=N/A time=00:00:12.64 bitrate=N/A speed=1.06e+03x    \n",
      "video:0kB audio:168kB subtitle:0kB other streams:0kB global headers:0kB muxing overhead: unknown\n",
      "ffmpeg version 4.4.1 Copyright (c) 2000-2021 the FFmpeg developers\n",
      "  built with gcc 10.3.0 (conda-forge gcc 10.3.0-16)\n",
      "  configuration: --prefix=/home/knoriy/anaconda3/envs/aligner --cc=/home/conda/feedstock_root/build_artifacts/ffmpeg_1653050584957/_build_env/bin/x86_64-conda-linux-gnu-cc --disable-doc --disable-openssl --enable-avresample --enable-demuxer=dash --enable-gnutls --enable-gpl --enable-hardcoded-tables --enable-libfreetype --enable-libopenh264 --enable-vaapi --enable-libx264 --enable-libx265 --enable-libaom --enable-libsvtav1 --enable-libxml2 --enable-libvpx --enable-pic --enable-pthreads --enable-shared --disable-static --enable-version3 --enable-zlib --enable-libmp3lame --pkg-config=/home/conda/feedstock_root/build_artifacts/ffmpeg_1653050584957/_build_env/bin/pkg-config\n",
      "  libavutil      56. 70.100 / 56. 70.100\n",
      "  libavcodec     58.134.100 / 58.134.100\n",
      "  libavformat    58. 76.100 / 58. 76.100\n",
      "  libavdevice    58. 13.100 / 58. 13.100\n",
      "  libavfilter     7.110.100 /  7.110.100\n",
      "  libavresample   4.  0.  0 /  4.  0.  0\n",
      "  libswscale      5.  9.100 /  5.  9.100\n",
      "  libswresample   3.  9.100 /  3.  9.100\n",
      "  libpostproc    55.  9.100 / 55.  9.100\n",
      "Input #0, flac, from '/home/knoriy/Documents/laion/split_peoples_speech/subset/your_chance_to_live_tech/your_chance_to_live_tech_DOT_mp3_00022.flac':\n",
      "  Metadata:\n",
      "    comment         : Processed by SoX\n",
      "    encoder         : Lavf58.29.100\n",
      "  Duration: 00:00:14.64, start: 0.000000, bitrate: 138 kb/s\n",
      "  Stream #0:0: Audio: flac, 16000 Hz, mono, s16\n",
      "Stream mapping:\n",
      "  Stream #0:0 -> #0:0 (flac (native) -> flac (native))\n",
      "Press [q] to stop, [?] for help\n",
      "[segment @ 0x56056ccde400] Opening '/home/knoriy/Documents/laion/split_peoples_speech/subset_split/your_chance_to_live_tech/your_chance_to_live_tech_DOT_mp3_00022.flac_00.flac' for writing\n",
      "Output #0, segment, to '/home/knoriy/Documents/laion/split_peoples_speech/subset_split/your_chance_to_live_tech/your_chance_to_live_tech_DOT_mp3_00022.flac_%02d.flac':\n",
      "  Metadata:\n",
      "    comment         : Processed by SoX\n",
      "    encoder         : Lavf58.76.100\n",
      "  Stream #0:0: Audio: flac, 16000 Hz, mono, s16, 128 kb/s\n",
      "    Metadata:\n",
      "      encoder         : Lavc58.134.100 flac\n",
      "[segment @ 0x56056ccde400] Opening '/home/knoriy/Documents/laion/split_peoples_speech/subset_split/your_chance_to_live_tech/your_chance_to_live_tech_DOT_mp3_00022.flac_01.flac' for writing\n",
      "size=N/A time=00:00:14.64 bitrate=N/A speed=1.29e+03x    \n",
      "video:0kB audio:239kB subtitle:0kB other streams:0kB global headers:0kB muxing overhead: unknown\n",
      "ffmpeg version 4.4.1 Copyright (c) 2000-2021 the FFmpeg developers\n",
      "  built with gcc 10.3.0 (conda-forge gcc 10.3.0-16)\n",
      "  configuration: --prefix=/home/knoriy/anaconda3/envs/aligner --cc=/home/conda/feedstock_root/build_artifacts/ffmpeg_1653050584957/_build_env/bin/x86_64-conda-linux-gnu-cc --disable-doc --disable-openssl --enable-avresample --enable-demuxer=dash --enable-gnutls --enable-gpl --enable-hardcoded-tables --enable-libfreetype --enable-libopenh264 --enable-vaapi --enable-libx264 --enable-libx265 --enable-libaom --enable-libsvtav1 --enable-libxml2 --enable-libvpx --enable-pic --enable-pthreads --enable-shared --disable-static --enable-version3 --enable-zlib --enable-libmp3lame --pkg-config=/home/conda/feedstock_root/build_artifacts/ffmpeg_1653050584957/_build_env/bin/pkg-config\n",
      "  libavutil      56. 70.100 / 56. 70.100\n",
      "  libavcodec     58.134.100 / 58.134.100\n",
      "  libavformat    58. 76.100 / 58. 76.100\n",
      "  libavdevice    58. 13.100 / 58. 13.100\n",
      "  libavfilter     7.110.100 /  7.110.100\n",
      "  libavresample   4.  0.  0 /  4.  0.  0\n",
      "  libswscale      5.  9.100 /  5.  9.100\n",
      "  libswresample   3.  9.100 /  3.  9.100\n",
      "  libpostproc    55.  9.100 / 55.  9.100\n",
      "Input #0, flac, from '/home/knoriy/Documents/laion/split_peoples_speech/subset/your_chance_to_live_tech/your_chance_to_live_tech_DOT_mp3_00009.flac':\n",
      "  Metadata:\n",
      "    comment         : Processed by SoX\n",
      "    encoder         : Lavf58.29.100\n",
      "  Duration: 00:00:14.82, start: 0.000000, bitrate: 127 kb/s\n",
      "  Stream #0:0: Audio: flac, 16000 Hz, mono, s16\n",
      "Stream mapping:\n",
      "  Stream #0:0 -> #0:0 (flac (native) -> flac (native))\n",
      "Press [q] to stop, [?] for help\n",
      "[segment @ 0x55e8083c1400] Opening '/home/knoriy/Documents/laion/split_peoples_speech/subset_split/your_chance_to_live_tech/your_chance_to_live_tech_DOT_mp3_00009.flac_00.flac' for writing\n",
      "Output #0, segment, to '/home/knoriy/Documents/laion/split_peoples_speech/subset_split/your_chance_to_live_tech/your_chance_to_live_tech_DOT_mp3_00009.flac_%02d.flac':\n",
      "  Metadata:\n",
      "    comment         : Processed by SoX\n",
      "    encoder         : Lavf58.76.100\n",
      "  Stream #0:0: Audio: flac, 16000 Hz, mono, s16, 128 kb/s\n",
      "    Metadata:\n",
      "      encoder         : Lavc58.134.100 flac\n",
      "[segment @ 0x55e8083c1400] Opening '/home/knoriy/Documents/laion/split_peoples_speech/subset_split/your_chance_to_live_tech/your_chance_to_live_tech_DOT_mp3_00009.flac_01.flac' for writing\n",
      "size=N/A time=00:00:14.82 bitrate=N/A speed=1.37e+03x    \n",
      "video:0kB audio:222kB subtitle:0kB other streams:0kB global headers:0kB muxing overhead: unknown\n",
      "spliting flac files into 5-10 seconds:  26%|██▌       | 6/23 [00:00<00:00, 26.86it/s]ffmpeg version 4.4.1 Copyright (c) 2000-2021 the FFmpeg developers\n",
      "  built with gcc 10.3.0 (conda-forge gcc 10.3.0-16)\n",
      "  configuration: --prefix=/home/knoriy/anaconda3/envs/aligner --cc=/home/conda/feedstock_root/build_artifacts/ffmpeg_1653050584957/_build_env/bin/x86_64-conda-linux-gnu-cc --disable-doc --disable-openssl --enable-avresample --enable-demuxer=dash --enable-gnutls --enable-gpl --enable-hardcoded-tables --enable-libfreetype --enable-libopenh264 --enable-vaapi --enable-libx264 --enable-libx265 --enable-libaom --enable-libsvtav1 --enable-libxml2 --enable-libvpx --enable-pic --enable-pthreads --enable-shared --disable-static --enable-version3 --enable-zlib --enable-libmp3lame --pkg-config=/home/conda/feedstock_root/build_artifacts/ffmpeg_1653050584957/_build_env/bin/pkg-config\n",
      "  libavutil      56. 70.100 / 56. 70.100\n",
      "  libavcodec     58.134.100 / 58.134.100\n",
      "  libavformat    58. 76.100 / 58. 76.100\n",
      "  libavdevice    58. 13.100 / 58. 13.100\n",
      "  libavfilter     7.110.100 /  7.110.100\n",
      "  libavresample   4.  0.  0 /  4.  0.  0\n",
      "  libswscale      5.  9.100 /  5.  9.100\n",
      "  libswresample   3.  9.100 /  3.  9.100\n",
      "  libpostproc    55.  9.100 / 55.  9.100\n",
      "Input #0, flac, from '/home/knoriy/Documents/laion/split_peoples_speech/subset/Zontar_Thing_From_Venus/Zontar_the_Thing_From_Venus_DOT_mp3_00021.flac':\n",
      "  Metadata:\n",
      "    comment         : Processed by SoX\n",
      "    encoder         : Lavf58.29.100\n",
      "  Duration: 00:00:14.74, start: 0.000000, bitrate: 117 kb/s\n",
      "  Stream #0:0: Audio: flac, 16000 Hz, mono, s16\n",
      "Stream mapping:\n",
      "  Stream #0:0 -> #0:0 (flac (native) -> flac (native))\n",
      "Press [q] to stop, [?] for help\n",
      "[segment @ 0x5590723b0400] Opening '/home/knoriy/Documents/laion/split_peoples_speech/subset_split/Zontar_Thing_From_Venus/Zontar_the_Thing_From_Venus_DOT_mp3_00021.flac_00.flac' for writing\n",
      "Output #0, segment, to '/home/knoriy/Documents/laion/split_peoples_speech/subset_split/Zontar_Thing_From_Venus/Zontar_the_Thing_From_Venus_DOT_mp3_00021.flac_%02d.flac':\n",
      "  Metadata:\n",
      "    comment         : Processed by SoX\n",
      "    encoder         : Lavf58.76.100\n",
      "  Stream #0:0: Audio: flac, 16000 Hz, mono, s16, 128 kb/s\n",
      "    Metadata:\n",
      "      encoder         : Lavc58.134.100 flac\n",
      "[segment @ 0x5590723b0400] Opening '/home/knoriy/Documents/laion/split_peoples_speech/subset_split/Zontar_Thing_From_Venus/Zontar_the_Thing_From_Venus_DOT_mp3_00021.flac_01.flac' for writing\n",
      "size=N/A time=00:00:14.74 bitrate=N/A speed=1.04e+03x    \n",
      "video:0kB audio:203kB subtitle:0kB other streams:0kB global headers:0kB muxing overhead: unknown\n",
      "ffmpeg version 4.4.1 Copyright (c) 2000-2021 the FFmpeg developers\n",
      "  built with gcc 10.3.0 (conda-forge gcc 10.3.0-16)\n",
      "  configuration: --prefix=/home/knoriy/anaconda3/envs/aligner --cc=/home/conda/feedstock_root/build_artifacts/ffmpeg_1653050584957/_build_env/bin/x86_64-conda-linux-gnu-cc --disable-doc --disable-openssl --enable-avresample --enable-demuxer=dash --enable-gnutls --enable-gpl --enable-hardcoded-tables --enable-libfreetype --enable-libopenh264 --enable-vaapi --enable-libx264 --enable-libx265 --enable-libaom --enable-libsvtav1 --enable-libxml2 --enable-libvpx --enable-pic --enable-pthreads --enable-shared --disable-static --enable-version3 --enable-zlib --enable-libmp3lame --pkg-config=/home/conda/feedstock_root/build_artifacts/ffmpeg_1653050584957/_build_env/bin/pkg-config\n",
      "  libavutil      56. 70.100 / 56. 70.100\n",
      "  libavcodec     58.134.100 / 58.134.100\n",
      "  libavformat    58. 76.100 / 58. 76.100\n",
      "  libavdevice    58. 13.100 / 58. 13.100\n",
      "  libavfilter     7.110.100 /  7.110.100\n",
      "  libavresample   4.  0.  0 /  4.  0.  0\n",
      "  libswscale      5.  9.100 /  5.  9.100\n",
      "  libswresample   3.  9.100 /  3.  9.100\n",
      "  libpostproc    55.  9.100 / 55.  9.100\n",
      "Input #0, flac, from '/home/knoriy/Documents/laion/split_peoples_speech/subset/Your_Police_Report_Feb_2014/Your_Police_Report_Feb_2014_DOT_mp3_00001.flac':\n",
      "  Metadata:\n",
      "    comment         : Processed by SoX\n",
      "    encoder         : Lavf58.29.100\n",
      "  Duration: 00:00:02.82, start: 0.000000, bitrate: 176 kb/s\n",
      "  Stream #0:0: Audio: flac, 16000 Hz, mono, s16\n",
      "Stream mapping:\n",
      "  Stream #0:0 -> #0:0 (flac (native) -> flac (native))\n",
      "Press [q] to stop, [?] for help\n",
      "[segment @ 0x5625cda8b400] Opening '/home/knoriy/Documents/laion/split_peoples_speech/subset_split/Your_Police_Report_Feb_2014/Your_Police_Report_Feb_2014_DOT_mp3_00001.flac_00.flac' for writing\n",
      "Output #0, segment, to '/home/knoriy/Documents/laion/split_peoples_speech/subset_split/Your_Police_Report_Feb_2014/Your_Police_Report_Feb_2014_DOT_mp3_00001.flac_%02d.flac':\n",
      "  Metadata:\n",
      "    comment         : Processed by SoX\n",
      "    encoder         : Lavf58.76.100\n",
      "  Stream #0:0: Audio: flac, 16000 Hz, mono, s16, 128 kb/s\n",
      "    Metadata:\n",
      "      encoder         : Lavc58.134.100 flac\n",
      "[segment @ 0x5625cda8b400] Opening '/home/knoriy/Documents/laion/split_peoples_speech/subset_split/Your_Police_Report_Feb_2014/Your_Police_Report_Feb_2014_DOT_mp3_00001.flac_01.flac' for writing\n",
      "size=N/A time=00:00:02.82 bitrate=N/A speed= 679x    \n",
      "video:0kB audio:53kB subtitle:0kB other streams:0kB global headers:0kB muxing overhead: unknown\n",
      "ffmpeg version 4.4.1 Copyright (c) 2000-2021 the FFmpeg developers\n",
      "  built with gcc 10.3.0 (conda-forge gcc 10.3.0-16)\n",
      "  configuration: --prefix=/home/knoriy/anaconda3/envs/aligner --cc=/home/conda/feedstock_root/build_artifacts/ffmpeg_1653050584957/_build_env/bin/x86_64-conda-linux-gnu-cc --disable-doc --disable-openssl --enable-avresample --enable-demuxer=dash --enable-gnutls --enable-gpl --enable-hardcoded-tables --enable-libfreetype --enable-libopenh264 --enable-vaapi --enable-libx264 --enable-libx265 --enable-libaom --enable-libsvtav1 --enable-libxml2 --enable-libvpx --enable-pic --enable-pthreads --enable-shared --disable-static --enable-version3 --enable-zlib --enable-libmp3lame --pkg-config=/home/conda/feedstock_root/build_artifacts/ffmpeg_1653050584957/_build_env/bin/pkg-config\n",
      "  libavutil      56. 70.100 / 56. 70.100\n",
      "  libavcodec     58.134.100 / 58.134.100\n",
      "  libavformat    58. 76.100 / 58. 76.100\n",
      "  libavdevice    58. 13.100 / 58. 13.100\n",
      "  libavfilter     7.110.100 /  7.110.100\n",
      "  libavresample   4.  0.  0 /  4.  0.  0\n",
      "  libswscale      5.  9.100 /  5.  9.100\n",
      "  libswresample   3.  9.100 /  3.  9.100\n",
      "  libpostproc    55.  9.100 / 55.  9.100\n",
      "Input #0, flac, from '/home/knoriy/Documents/laion/split_peoples_speech/subset/Your_Property_Reassessment_-_What_Does_It_Mean_-_August_1_2016/Your_Property_Reassessment_-_What_Does_It_Mean_-_August_1_2016_DOT_mp3_00005.flac':\n",
      "  Metadata:\n",
      "    comment         : Processed by SoX\n",
      "    encoder         : Lavf58.29.100\n",
      "  Duration: 00:00:14.98, start: 0.000000, bitrate: 156 kb/s\n",
      "  Stream #0:0: Audio: flac, 16000 Hz, mono, s16\n",
      "Stream mapping:\n",
      "  Stream #0:0 -> #0:0 (flac (native) -> flac (native))\n",
      "Press [q] to stop, [?] for help\n",
      "[segment @ 0x564059c88580] Opening '/home/knoriy/Documents/laion/split_peoples_speech/subset_split/Your_Property_Reassessment_-_What_Does_It_Mean_-_August_1_2016/Your_Property_Reassessment_-_What_Does_It_Mean_-_August_1_2016_DOT_mp3_00005.flac_00.flac' for writing\n",
      "Output #0, segment, to '/home/knoriy/Documents/laion/split_peoples_speech/subset_split/Your_Property_Reassessment_-_What_Does_It_Mean_-_August_1_2016/Your_Property_Reassessment_-_What_Does_It_Mean_-_August_1_2016_DOT_mp3_00005.flac_%02d.flac':\n",
      "  Metadata:\n",
      "    comment         : Processed by SoX\n",
      "    encoder         : Lavf58.76.100\n",
      "  Stream #0:0: Audio: flac, 16000 Hz, mono, s16, 128 kb/s\n",
      "    Metadata:\n",
      "      encoder         : Lavc58.134.100 flac\n",
      "[segment @ 0x564059c88580] Opening '/home/knoriy/Documents/laion/split_peoples_speech/subset_split/Your_Property_Reassessment_-_What_Does_It_Mean_-_August_1_2016/Your_Property_Reassessment_-_What_Does_It_Mean_-_August_1_2016_DOT_mp3_00005.flac_01.flac' for writing\n",
      "size=N/A time=00:00:14.98 bitrate=N/A speed=1.31e+03x    \n",
      "video:0kB audio:278kB subtitle:0kB other streams:0kB global headers:0kB muxing overhead: unknown\n",
      "spliting flac files into 5-10 seconds:  39%|███▉      | 9/23 [00:00<00:00, 28.12it/s]ffmpeg version 4.4.1 Copyright (c) 2000-2021 the FFmpeg developers\n",
      "  built with gcc 10.3.0 (conda-forge gcc 10.3.0-16)\n",
      "  configuration: --prefix=/home/knoriy/anaconda3/envs/aligner --cc=/home/conda/feedstock_root/build_artifacts/ffmpeg_1653050584957/_build_env/bin/x86_64-conda-linux-gnu-cc --disable-doc --disable-openssl --enable-avresample --enable-demuxer=dash --enable-gnutls --enable-gpl --enable-hardcoded-tables --enable-libfreetype --enable-libopenh264 --enable-vaapi --enable-libx264 --enable-libx265 --enable-libaom --enable-libsvtav1 --enable-libxml2 --enable-libvpx --enable-pic --enable-pthreads --enable-shared --disable-static --enable-version3 --enable-zlib --enable-libmp3lame --pkg-config=/home/conda/feedstock_root/build_artifacts/ffmpeg_1653050584957/_build_env/bin/pkg-config\n",
      "  libavutil      56. 70.100 / 56. 70.100\n",
      "  libavcodec     58.134.100 / 58.134.100\n",
      "  libavformat    58. 76.100 / 58. 76.100\n",
      "  libavdevice    58. 13.100 / 58. 13.100\n",
      "  libavfilter     7.110.100 /  7.110.100\n",
      "  libavresample   4.  0.  0 /  4.  0.  0\n",
      "  libswscale      5.  9.100 /  5.  9.100\n",
      "  libswresample   3.  9.100 /  3.  9.100\n",
      "  libpostproc    55.  9.100 / 55.  9.100\n",
      "Input #0, flac, from '/home/knoriy/Documents/laion/split_peoples_speech/subset/Your_Property_Reassessment_-_What_Does_It_Mean_-_August_1_2016/Your_Property_Reassessment_-_What_Does_It_Mean_-_August_1_2016_DOT_mp3_00252.flac':\n",
      "  Metadata:\n",
      "    comment         : Processed by SoX\n",
      "    encoder         : Lavf58.29.100\n",
      "  Duration: 00:00:05.79, start: 0.000000, bitrate: 143 kb/s\n",
      "  Stream #0:0: Audio: flac, 16000 Hz, mono, s16\n",
      "Stream mapping:\n",
      "  Stream #0:0 -> #0:0 (flac (native) -> flac (native))\n",
      "Press [q] to stop, [?] for help\n",
      "[segment @ 0x55db0d30c580] Opening '/home/knoriy/Documents/laion/split_peoples_speech/subset_split/Your_Property_Reassessment_-_What_Does_It_Mean_-_August_1_2016/Your_Property_Reassessment_-_What_Does_It_Mean_-_August_1_2016_DOT_mp3_00252.flac_00.flac' for writing\n",
      "Output #0, segment, to '/home/knoriy/Documents/laion/split_peoples_speech/subset_split/Your_Property_Reassessment_-_What_Does_It_Mean_-_August_1_2016/Your_Property_Reassessment_-_What_Does_It_Mean_-_August_1_2016_DOT_mp3_00252.flac_%02d.flac':\n",
      "  Metadata:\n",
      "    comment         : Processed by SoX\n",
      "    encoder         : Lavf58.76.100\n",
      "  Stream #0:0: Audio: flac, 16000 Hz, mono, s16, 128 kb/s\n",
      "    Metadata:\n",
      "      encoder         : Lavc58.134.100 flac\n",
      "[segment @ 0x55db0d30c580] Opening '/home/knoriy/Documents/laion/split_peoples_speech/subset_split/Your_Property_Reassessment_-_What_Does_It_Mean_-_August_1_2016/Your_Property_Reassessment_-_What_Does_It_Mean_-_August_1_2016_DOT_mp3_00252.flac_01.flac' for writing\n",
      "size=N/A time=00:00:05.79 bitrate=N/A speed=1.17e+03x    \n",
      "video:0kB audio:94kB subtitle:0kB other streams:0kB global headers:0kB muxing overhead: unknown\n",
      "ffmpeg version 4.4.1 Copyright (c) 2000-2021 the FFmpeg developers\n",
      "  built with gcc 10.3.0 (conda-forge gcc 10.3.0-16)\n",
      "  configuration: --prefix=/home/knoriy/anaconda3/envs/aligner --cc=/home/conda/feedstock_root/build_artifacts/ffmpeg_1653050584957/_build_env/bin/x86_64-conda-linux-gnu-cc --disable-doc --disable-openssl --enable-avresample --enable-demuxer=dash --enable-gnutls --enable-gpl --enable-hardcoded-tables --enable-libfreetype --enable-libopenh264 --enable-vaapi --enable-libx264 --enable-libx265 --enable-libaom --enable-libsvtav1 --enable-libxml2 --enable-libvpx --enable-pic --enable-pthreads --enable-shared --disable-static --enable-version3 --enable-zlib --enable-libmp3lame --pkg-config=/home/conda/feedstock_root/build_artifacts/ffmpeg_1653050584957/_build_env/bin/pkg-config\n",
      "  libavutil      56. 70.100 / 56. 70.100\n",
      "  libavcodec     58.134.100 / 58.134.100\n",
      "  libavformat    58. 76.100 / 58. 76.100\n",
      "  libavdevice    58. 13.100 / 58. 13.100\n",
      "  libavfilter     7.110.100 /  7.110.100\n",
      "  libavresample   4.  0.  0 /  4.  0.  0\n",
      "  libswscale      5.  9.100 /  5.  9.100\n",
      "  libswresample   3.  9.100 /  3.  9.100\n",
      "  libpostproc    55.  9.100 / 55.  9.100\n",
      "Input #0, flac, from '/home/knoriy/Documents/laion/split_peoples_speech/subset/Your_Property_Reassessment_-_What_Does_It_Mean_-_August_1_2016/Your_Property_Reassessment_-_What_Does_It_Mean_-_August_1_2016_DOT_mp3_00229.flac':\n",
      "  Metadata:\n",
      "    comment         : Processed by SoX\n",
      "    encoder         : Lavf58.29.100\n",
      "  Duration: 00:00:14.92, start: 0.000000, bitrate: 162 kb/s\n",
      "  Stream #0:0: Audio: flac, 16000 Hz, mono, s16\n",
      "Stream mapping:\n",
      "  Stream #0:0 -> #0:0 (flac (native) -> flac (native))\n",
      "Press [q] to stop, [?] for help\n",
      "[segment @ 0x5575a4d6e4c0] Opening '/home/knoriy/Documents/laion/split_peoples_speech/subset_split/Your_Property_Reassessment_-_What_Does_It_Mean_-_August_1_2016/Your_Property_Reassessment_-_What_Does_It_Mean_-_August_1_2016_DOT_mp3_00229.flac_00.flac' for writing\n",
      "Output #0, segment, to '/home/knoriy/Documents/laion/split_peoples_speech/subset_split/Your_Property_Reassessment_-_What_Does_It_Mean_-_August_1_2016/Your_Property_Reassessment_-_What_Does_It_Mean_-_August_1_2016_DOT_mp3_00229.flac_%02d.flac':\n",
      "  Metadata:\n",
      "    comment         : Processed by SoX\n",
      "    encoder         : Lavf58.76.100\n",
      "  Stream #0:0: Audio: flac, 16000 Hz, mono, s16, 128 kb/s\n",
      "    Metadata:\n",
      "      encoder         : Lavc58.134.100 flac\n",
      "[segment @ 0x5575a4d6e4c0] Opening '/home/knoriy/Documents/laion/split_peoples_speech/subset_split/Your_Property_Reassessment_-_What_Does_It_Mean_-_August_1_2016/Your_Property_Reassessment_-_What_Does_It_Mean_-_August_1_2016_DOT_mp3_00229.flac_01.flac' for writing\n",
      "size=N/A time=00:00:14.92 bitrate=N/A speed=1.12e+03x    \n",
      "video:0kB audio:287kB subtitle:0kB other streams:0kB global headers:0kB muxing overhead: unknown\n",
      "ffmpeg version 4.4.1 Copyright (c) 2000-2021 the FFmpeg developers\n",
      "  built with gcc 10.3.0 (conda-forge gcc 10.3.0-16)\n",
      "  configuration: --prefix=/home/knoriy/anaconda3/envs/aligner --cc=/home/conda/feedstock_root/build_artifacts/ffmpeg_1653050584957/_build_env/bin/x86_64-conda-linux-gnu-cc --disable-doc --disable-openssl --enable-avresample --enable-demuxer=dash --enable-gnutls --enable-gpl --enable-hardcoded-tables --enable-libfreetype --enable-libopenh264 --enable-vaapi --enable-libx264 --enable-libx265 --enable-libaom --enable-libsvtav1 --enable-libxml2 --enable-libvpx --enable-pic --enable-pthreads --enable-shared --disable-static --enable-version3 --enable-zlib --enable-libmp3lame --pkg-config=/home/conda/feedstock_root/build_artifacts/ffmpeg_1653050584957/_build_env/bin/pkg-config\n",
      "  libavutil      56. 70.100 / 56. 70.100\n",
      "  libavcodec     58.134.100 / 58.134.100\n",
      "  libavformat    58. 76.100 / 58. 76.100\n",
      "  libavdevice    58. 13.100 / 58. 13.100\n",
      "  libavfilter     7.110.100 /  7.110.100\n",
      "  libavresample   4.  0.  0 /  4.  0.  0\n",
      "  libswscale      5.  9.100 /  5.  9.100\n",
      "  libswresample   3.  9.100 /  3.  9.100\n",
      "  libpostproc    55.  9.100 / 55.  9.100\n",
      "Input #0, flac, from '/home/knoriy/Documents/laion/split_peoples_speech/subset/Your_Property_Reassessment_-_What_Does_It_Mean_-_August_1_2016/Your_Property_Reassessment_-_What_Does_It_Mean_-_August_1_2016_DOT_mp3_00174.flac':\n",
      "  Metadata:\n",
      "    comment         : Processed by SoX\n",
      "    encoder         : Lavf58.29.100\n",
      "  Duration: 00:00:14.80, start: 0.000000, bitrate: 146 kb/s\n",
      "  Stream #0:0: Audio: flac, 16000 Hz, mono, s16\n",
      "Stream mapping:\n",
      "  Stream #0:0 -> #0:0 (flac (native) -> flac (native))\n",
      "Press [q] to stop, [?] for help\n",
      "[segment @ 0x55bb113b84c0] Opening '/home/knoriy/Documents/laion/split_peoples_speech/subset_split/Your_Property_Reassessment_-_What_Does_It_Mean_-_August_1_2016/Your_Property_Reassessment_-_What_Does_It_Mean_-_August_1_2016_DOT_mp3_00174.flac_00.flac' for writing\n",
      "Output #0, segment, to '/home/knoriy/Documents/laion/split_peoples_speech/subset_split/Your_Property_Reassessment_-_What_Does_It_Mean_-_August_1_2016/Your_Property_Reassessment_-_What_Does_It_Mean_-_August_1_2016_DOT_mp3_00174.flac_%02d.flac':\n",
      "  Metadata:\n",
      "    comment         : Processed by SoX\n",
      "    encoder         : Lavf58.76.100\n",
      "  Stream #0:0: Audio: flac, 16000 Hz, mono, s16, 128 kb/s\n",
      "    Metadata:\n",
      "      encoder         : Lavc58.134.100 flac\n",
      "[segment @ 0x55bb113b84c0] Opening '/home/knoriy/Documents/laion/split_peoples_speech/subset_split/Your_Property_Reassessment_-_What_Does_It_Mean_-_August_1_2016/Your_Property_Reassessment_-_What_Does_It_Mean_-_August_1_2016_DOT_mp3_00174.flac_01.flac' for writing\n",
      "size=N/A time=00:00:14.80 bitrate=N/A speed=1.06e+03x    \n",
      "video:0kB audio:256kB subtitle:0kB other streams:0kB global headers:0kB muxing overhead: unknown\n",
      "ffmpeg version 4.4.1 Copyright (c) 2000-2021 the FFmpeg developers\n",
      "  built with gcc 10.3.0 (conda-forge gcc 10.3.0-16)\n",
      "  configuration: --prefix=/home/knoriy/anaconda3/envs/aligner --cc=/home/conda/feedstock_root/build_artifacts/ffmpeg_1653050584957/_build_env/bin/x86_64-conda-linux-gnu-cc --disable-doc --disable-openssl --enable-avresample --enable-demuxer=dash --enable-gnutls --enable-gpl --enable-hardcoded-tables --enable-libfreetype --enable-libopenh264 --enable-vaapi --enable-libx264 --enable-libx265 --enable-libaom --enable-libsvtav1 --enable-libxml2 --enable-libvpx --enable-pic --enable-pthreads --enable-shared --disable-static --enable-version3 --enable-zlib --enable-libmp3lame --pkg-config=/home/conda/feedstock_root/build_artifacts/ffmpeg_1653050584957/_build_env/bin/pkg-config\n",
      "  libavutil      56. 70.100 / 56. 70.100\n",
      "  libavcodec     58.134.100 / 58.134.100\n",
      "  libavformat    58. 76.100 / 58. 76.100\n",
      "  libavdevice    58. 13.100 / 58. 13.100\n",
      "  libavfilter     7.110.100 /  7.110.100\n",
      "  libavresample   4.  0.  0 /  4.  0.  0\n",
      "  libswscale      5.  9.100 /  5.  9.100\n",
      "  libswresample   3.  9.100 /  3.  9.100\n",
      "  libpostproc    55.  9.100 / 55.  9.100\n",
      "Input #0, flac, from '/home/knoriy/Documents/laion/split_peoples_speech/subset/Your_Property_Reassessment_-_What_Does_It_Mean_-_August_1_2016/Your_Property_Reassessment_-_What_Does_It_Mean_-_August_1_2016_DOT_mp3_00076.flac':\n",
      "  Metadata:\n",
      "    comment         : Processed by SoX\n",
      "    encoder         : Lavf58.29.100\n",
      "  Duration: 00:00:14.89, start: 0.000000, bitrate: 150 kb/s\n",
      "  Stream #0:0: Audio: flac, 16000 Hz, mono, s16\n",
      "Stream mapping:\n",
      "  Stream #0:0 -> #0:0 (flac (native) -> flac (native))\n",
      "Press [q] to stop, [?] for help\n",
      "[segment @ 0x5592d851d4c0] Opening '/home/knoriy/Documents/laion/split_peoples_speech/subset_split/Your_Property_Reassessment_-_What_Does_It_Mean_-_August_1_2016/Your_Property_Reassessment_-_What_Does_It_Mean_-_August_1_2016_DOT_mp3_00076.flac_00.flac' for writing\n",
      "Output #0, segment, to '/home/knoriy/Documents/laion/split_peoples_speech/subset_split/Your_Property_Reassessment_-_What_Does_It_Mean_-_August_1_2016/Your_Property_Reassessment_-_What_Does_It_Mean_-_August_1_2016_DOT_mp3_00076.flac_%02d.flac':\n",
      "  Metadata:\n",
      "    comment         : Processed by SoX\n",
      "    encoder         : Lavf58.76.100\n",
      "  Stream #0:0: Audio: flac, 16000 Hz, mono, s16, 128 kb/s\n",
      "    Metadata:\n",
      "      encoder         : Lavc58.134.100 flac\n",
      "[segment @ 0x5592d851d4c0] Opening '/home/knoriy/Documents/laion/split_peoples_speech/subset_split/Your_Property_Reassessment_-_What_Does_It_Mean_-_August_1_2016/Your_Property_Reassessment_-_What_Does_It_Mean_-_August_1_2016_DOT_mp3_00076.flac_01.flac' for writing\n",
      "size=N/A time=00:00:14.89 bitrate=N/A speed= 714x    \n",
      "video:0kB audio:266kB subtitle:0kB other streams:0kB global headers:0kB muxing overhead: unknown\n",
      "spliting flac files into 5-10 seconds:  57%|█████▋    | 13/23 [00:00<00:00, 28.70it/s]ffmpeg version 4.4.1 Copyright (c) 2000-2021 the FFmpeg developers\n",
      "  built with gcc 10.3.0 (conda-forge gcc 10.3.0-16)\n",
      "  configuration: --prefix=/home/knoriy/anaconda3/envs/aligner --cc=/home/conda/feedstock_root/build_artifacts/ffmpeg_1653050584957/_build_env/bin/x86_64-conda-linux-gnu-cc --disable-doc --disable-openssl --enable-avresample --enable-demuxer=dash --enable-gnutls --enable-gpl --enable-hardcoded-tables --enable-libfreetype --enable-libopenh264 --enable-vaapi --enable-libx264 --enable-libx265 --enable-libaom --enable-libsvtav1 --enable-libxml2 --enable-libvpx --enable-pic --enable-pthreads --enable-shared --disable-static --enable-version3 --enable-zlib --enable-libmp3lame --pkg-config=/home/conda/feedstock_root/build_artifacts/ffmpeg_1653050584957/_build_env/bin/pkg-config\n",
      "  libavutil      56. 70.100 / 56. 70.100\n",
      "  libavcodec     58.134.100 / 58.134.100\n",
      "  libavformat    58. 76.100 / 58. 76.100\n",
      "  libavdevice    58. 13.100 / 58. 13.100\n",
      "  libavfilter     7.110.100 /  7.110.100\n",
      "  libavresample   4.  0.  0 /  4.  0.  0\n",
      "  libswscale      5.  9.100 /  5.  9.100\n",
      "  libswresample   3.  9.100 /  3.  9.100\n",
      "  libpostproc    55.  9.100 / 55.  9.100\n",
      "Input #0, flac, from '/home/knoriy/Documents/laion/split_peoples_speech/subset/Your_Property_Reassessment_-_What_Does_It_Mean_-_August_1_2016/Your_Property_Reassessment_-_What_Does_It_Mean_-_August_1_2016_DOT_mp3_00176.flac':\n",
      "  Metadata:\n",
      "    comment         : Processed by SoX\n",
      "    encoder         : Lavf58.29.100\n",
      "  Duration: 00:00:14.43, start: 0.000000, bitrate: 147 kb/s\n",
      "  Stream #0:0: Audio: flac, 16000 Hz, mono, s16\n",
      "Stream mapping:\n",
      "  Stream #0:0 -> #0:0 (flac (native) -> flac (native))\n",
      "Press [q] to stop, [?] for help\n",
      "[segment @ 0x55869d5db4c0] Opening '/home/knoriy/Documents/laion/split_peoples_speech/subset_split/Your_Property_Reassessment_-_What_Does_It_Mean_-_August_1_2016/Your_Property_Reassessment_-_What_Does_It_Mean_-_August_1_2016_DOT_mp3_00176.flac_00.flac' for writing\n",
      "Output #0, segment, to '/home/knoriy/Documents/laion/split_peoples_speech/subset_split/Your_Property_Reassessment_-_What_Does_It_Mean_-_August_1_2016/Your_Property_Reassessment_-_What_Does_It_Mean_-_August_1_2016_DOT_mp3_00176.flac_%02d.flac':\n",
      "  Metadata:\n",
      "    comment         : Processed by SoX\n",
      "    encoder         : Lavf58.76.100\n",
      "  Stream #0:0: Audio: flac, 16000 Hz, mono, s16, 128 kb/s\n",
      "    Metadata:\n",
      "      encoder         : Lavc58.134.100 flac\n",
      "[segment @ 0x55869d5db4c0] Opening '/home/knoriy/Documents/laion/split_peoples_speech/subset_split/Your_Property_Reassessment_-_What_Does_It_Mean_-_August_1_2016/Your_Property_Reassessment_-_What_Does_It_Mean_-_August_1_2016_DOT_mp3_00176.flac_01.flac' for writing\n",
      "size=N/A time=00:00:14.43 bitrate=N/A speed=1.06e+03x    \n",
      "video:0kB audio:252kB subtitle:0kB other streams:0kB global headers:0kB muxing overhead: unknown\n",
      "ffmpeg version 4.4.1 Copyright (c) 2000-2021 the FFmpeg developers\n",
      "  built with gcc 10.3.0 (conda-forge gcc 10.3.0-16)\n",
      "  configuration: --prefix=/home/knoriy/anaconda3/envs/aligner --cc=/home/conda/feedstock_root/build_artifacts/ffmpeg_1653050584957/_build_env/bin/x86_64-conda-linux-gnu-cc --disable-doc --disable-openssl --enable-avresample --enable-demuxer=dash --enable-gnutls --enable-gpl --enable-hardcoded-tables --enable-libfreetype --enable-libopenh264 --enable-vaapi --enable-libx264 --enable-libx265 --enable-libaom --enable-libsvtav1 --enable-libxml2 --enable-libvpx --enable-pic --enable-pthreads --enable-shared --disable-static --enable-version3 --enable-zlib --enable-libmp3lame --pkg-config=/home/conda/feedstock_root/build_artifacts/ffmpeg_1653050584957/_build_env/bin/pkg-config\n",
      "  libavutil      56. 70.100 / 56. 70.100\n",
      "  libavcodec     58.134.100 / 58.134.100\n",
      "  libavformat    58. 76.100 / 58. 76.100\n",
      "  libavdevice    58. 13.100 / 58. 13.100\n",
      "  libavfilter     7.110.100 /  7.110.100\n",
      "  libavresample   4.  0.  0 /  4.  0.  0\n",
      "  libswscale      5.  9.100 /  5.  9.100\n",
      "  libswresample   3.  9.100 /  3.  9.100\n",
      "  libpostproc    55.  9.100 / 55.  9.100\n",
      "Input #0, flac, from '/home/knoriy/Documents/laion/split_peoples_speech/subset/Your_Property_Reassessment_-_What_Does_It_Mean_-_August_1_2016/Your_Property_Reassessment_-_What_Does_It_Mean_-_August_1_2016_DOT_mp3_00274.flac':\n",
      "  Metadata:\n",
      "    comment         : Processed by SoX\n",
      "    encoder         : Lavf58.29.100\n",
      "  Duration: 00:00:14.56, start: 0.000000, bitrate: 144 kb/s\n",
      "  Stream #0:0: Audio: flac, 16000 Hz, mono, s16\n",
      "Stream mapping:\n",
      "  Stream #0:0 -> #0:0 (flac (native) -> flac (native))\n",
      "Press [q] to stop, [?] for help\n",
      "[segment @ 0x55aa88fcc4c0] Opening '/home/knoriy/Documents/laion/split_peoples_speech/subset_split/Your_Property_Reassessment_-_What_Does_It_Mean_-_August_1_2016/Your_Property_Reassessment_-_What_Does_It_Mean_-_August_1_2016_DOT_mp3_00274.flac_00.flac' for writing\n",
      "Output #0, segment, to '/home/knoriy/Documents/laion/split_peoples_speech/subset_split/Your_Property_Reassessment_-_What_Does_It_Mean_-_August_1_2016/Your_Property_Reassessment_-_What_Does_It_Mean_-_August_1_2016_DOT_mp3_00274.flac_%02d.flac':\n",
      "  Metadata:\n",
      "    comment         : Processed by SoX\n",
      "    encoder         : Lavf58.76.100\n",
      "  Stream #0:0: Audio: flac, 16000 Hz, mono, s16, 128 kb/s\n",
      "    Metadata:\n",
      "      encoder         : Lavc58.134.100 flac\n",
      "[segment @ 0x55aa88fcc4c0] Opening '/home/knoriy/Documents/laion/split_peoples_speech/subset_split/Your_Property_Reassessment_-_What_Does_It_Mean_-_August_1_2016/Your_Property_Reassessment_-_What_Does_It_Mean_-_August_1_2016_DOT_mp3_00274.flac_01.flac' for writing\n",
      "size=N/A time=00:00:14.56 bitrate=N/A speed=1.16e+03x    \n",
      "video:0kB audio:249kB subtitle:0kB other streams:0kB global headers:0kB muxing overhead: unknown\n",
      "ffmpeg version 4.4.1 Copyright (c) 2000-2021 the FFmpeg developers\n",
      "  built with gcc 10.3.0 (conda-forge gcc 10.3.0-16)\n",
      "  configuration: --prefix=/home/knoriy/anaconda3/envs/aligner --cc=/home/conda/feedstock_root/build_artifacts/ffmpeg_1653050584957/_build_env/bin/x86_64-conda-linux-gnu-cc --disable-doc --disable-openssl --enable-avresample --enable-demuxer=dash --enable-gnutls --enable-gpl --enable-hardcoded-tables --enable-libfreetype --enable-libopenh264 --enable-vaapi --enable-libx264 --enable-libx265 --enable-libaom --enable-libsvtav1 --enable-libxml2 --enable-libvpx --enable-pic --enable-pthreads --enable-shared --disable-static --enable-version3 --enable-zlib --enable-libmp3lame --pkg-config=/home/conda/feedstock_root/build_artifacts/ffmpeg_1653050584957/_build_env/bin/pkg-config\n",
      "  libavutil      56. 70.100 / 56. 70.100\n",
      "  libavcodec     58.134.100 / 58.134.100\n",
      "  libavformat    58. 76.100 / 58. 76.100\n",
      "  libavdevice    58. 13.100 / 58. 13.100\n",
      "  libavfilter     7.110.100 /  7.110.100\n",
      "  libavresample   4.  0.  0 /  4.  0.  0\n",
      "  libswscale      5.  9.100 /  5.  9.100\n",
      "  libswresample   3.  9.100 /  3.  9.100\n",
      "  libpostproc    55.  9.100 / 55.  9.100\n",
      "Input #0, flac, from '/home/knoriy/Documents/laion/split_peoples_speech/subset/wwf_the_battle_of_britain/the_battle_of_britain_DOT_mp3_00002.flac':\n",
      "  Metadata:\n",
      "    comment         : Processed by SoX\n",
      "    encoder         : Lavf58.29.100\n",
      "  Duration: 00:00:14.26, start: 0.000000, bitrate: 156 kb/s\n",
      "  Stream #0:0: Audio: flac, 16000 Hz, mono, s16\n",
      "Stream mapping:\n",
      "  Stream #0:0 -> #0:0 (flac (native) -> flac (native))\n",
      "Press [q] to stop, [?] for help\n",
      "[segment @ 0x55bac3d97400] Opening '/home/knoriy/Documents/laion/split_peoples_speech/subset_split/wwf_the_battle_of_britain/the_battle_of_britain_DOT_mp3_00002.flac_00.flac' for writing\n",
      "Output #0, segment, to '/home/knoriy/Documents/laion/split_peoples_speech/subset_split/wwf_the_battle_of_britain/the_battle_of_britain_DOT_mp3_00002.flac_%02d.flac':\n",
      "  Metadata:\n",
      "    comment         : Processed by SoX\n",
      "    encoder         : Lavf58.76.100\n",
      "  Stream #0:0: Audio: flac, 16000 Hz, mono, s16, 128 kb/s\n",
      "    Metadata:\n",
      "      encoder         : Lavc58.134.100 flac\n",
      "[segment @ 0x55bac3d97400] Opening '/home/knoriy/Documents/laion/split_peoples_speech/subset_split/wwf_the_battle_of_britain/the_battle_of_britain_DOT_mp3_00002.flac_01.flac' for writing\n",
      "size=N/A time=00:00:14.26 bitrate=N/A speed= 920x    \n",
      "video:0kB audio:265kB subtitle:0kB other streams:0kB global headers:0kB muxing overhead: unknown\n",
      "spliting flac files into 5-10 seconds:  70%|██████▉   | 16/23 [00:00<00:00, 27.60it/s]ffmpeg version 4.4.1 Copyright (c) 2000-2021 the FFmpeg developers\n",
      "  built with gcc 10.3.0 (conda-forge gcc 10.3.0-16)\n",
      "  configuration: --prefix=/home/knoriy/anaconda3/envs/aligner --cc=/home/conda/feedstock_root/build_artifacts/ffmpeg_1653050584957/_build_env/bin/x86_64-conda-linux-gnu-cc --disable-doc --disable-openssl --enable-avresample --enable-demuxer=dash --enable-gnutls --enable-gpl --enable-hardcoded-tables --enable-libfreetype --enable-libopenh264 --enable-vaapi --enable-libx264 --enable-libx265 --enable-libaom --enable-libsvtav1 --enable-libxml2 --enable-libvpx --enable-pic --enable-pthreads --enable-shared --disable-static --enable-version3 --enable-zlib --enable-libmp3lame --pkg-config=/home/conda/feedstock_root/build_artifacts/ffmpeg_1653050584957/_build_env/bin/pkg-config\n",
      "  libavutil      56. 70.100 / 56. 70.100\n",
      "  libavcodec     58.134.100 / 58.134.100\n",
      "  libavformat    58. 76.100 / 58. 76.100\n",
      "  libavdevice    58. 13.100 / 58. 13.100\n",
      "  libavfilter     7.110.100 /  7.110.100\n",
      "  libavresample   4.  0.  0 /  4.  0.  0\n",
      "  libswscale      5.  9.100 /  5.  9.100\n",
      "  libswresample   3.  9.100 /  3.  9.100\n",
      "  libpostproc    55.  9.100 / 55.  9.100\n",
      "Input #0, flac, from '/home/knoriy/Documents/laion/split_peoples_speech/subset/YouAreth1951/YouAreth1951_DOT_mp3_00022.flac':\n",
      "  Metadata:\n",
      "    comment         : Processed by SoX\n",
      "    encoder         : Lavf58.29.100\n",
      "  Duration: 00:00:13.59, start: 0.000000, bitrate: 153 kb/s\n",
      "  Stream #0:0: Audio: flac, 16000 Hz, mono, s16\n",
      "Stream mapping:\n",
      "  Stream #0:0 -> #0:0 (flac (native) -> flac (native))\n",
      "Press [q] to stop, [?] for help\n",
      "[segment @ 0x557b2695c340] Opening '/home/knoriy/Documents/laion/split_peoples_speech/subset_split/YouAreth1951/YouAreth1951_DOT_mp3_00022.flac_00.flac' for writing\n",
      "Output #0, segment, to '/home/knoriy/Documents/laion/split_peoples_speech/subset_split/YouAreth1951/YouAreth1951_DOT_mp3_00022.flac_%02d.flac':\n",
      "  Metadata:\n",
      "    comment         : Processed by SoX\n",
      "    encoder         : Lavf58.76.100\n",
      "  Stream #0:0: Audio: flac, 16000 Hz, mono, s16, 128 kb/s\n",
      "    Metadata:\n",
      "      encoder         : Lavc58.134.100 flac\n",
      "[segment @ 0x557b2695c340] Opening '/home/knoriy/Documents/laion/split_peoples_speech/subset_split/YouAreth1951/YouAreth1951_DOT_mp3_00022.flac_01.flac' for writing\n",
      "size=N/A time=00:00:13.59 bitrate=N/A speed= 884x    \n",
      "video:0kB audio:246kB subtitle:0kB other streams:0kB global headers:0kB muxing overhead: unknown\n",
      "ffmpeg version 4.4.1 Copyright (c) 2000-2021 the FFmpeg developers\n",
      "  built with gcc 10.3.0 (conda-forge gcc 10.3.0-16)\n",
      "  configuration: --prefix=/home/knoriy/anaconda3/envs/aligner --cc=/home/conda/feedstock_root/build_artifacts/ffmpeg_1653050584957/_build_env/bin/x86_64-conda-linux-gnu-cc --disable-doc --disable-openssl --enable-avresample --enable-demuxer=dash --enable-gnutls --enable-gpl --enable-hardcoded-tables --enable-libfreetype --enable-libopenh264 --enable-vaapi --enable-libx264 --enable-libx265 --enable-libaom --enable-libsvtav1 --enable-libxml2 --enable-libvpx --enable-pic --enable-pthreads --enable-shared --disable-static --enable-version3 --enable-zlib --enable-libmp3lame --pkg-config=/home/conda/feedstock_root/build_artifacts/ffmpeg_1653050584957/_build_env/bin/pkg-config\n",
      "  libavutil      56. 70.100 / 56. 70.100\n",
      "  libavcodec     58.134.100 / 58.134.100\n",
      "  libavformat    58. 76.100 / 58. 76.100\n",
      "  libavdevice    58. 13.100 / 58. 13.100\n",
      "  libavfilter     7.110.100 /  7.110.100\n",
      "  libavresample   4.  0.  0 /  4.  0.  0\n",
      "  libswscale      5.  9.100 /  5.  9.100\n",
      "  libswresample   3.  9.100 /  3.  9.100\n",
      "  libpostproc    55.  9.100 / 55.  9.100\n",
      "Input #0, flac, from '/home/knoriy/Documents/laion/split_peoples_speech/subset/ZBA030816CL19/ZBA_030816-CL19_DOT_mp3_00070.flac':\n",
      "  Metadata:\n",
      "    comment         : Processed by SoX\n",
      "    encoder         : Lavf58.29.100\n",
      "  Duration: 00:00:14.98, start: 0.000000, bitrate: 154 kb/s\n",
      "  Stream #0:0: Audio: flac, 16000 Hz, mono, s16\n",
      "Stream mapping:\n",
      "  Stream #0:0 -> #0:0 (flac (native) -> flac (native))\n",
      "Press [q] to stop, [?] for help\n",
      "[segment @ 0x56455aebf3c0] Opening '/home/knoriy/Documents/laion/split_peoples_speech/subset_split/ZBA030816CL19/ZBA_030816-CL19_DOT_mp3_00070.flac_00.flac' for writing\n",
      "Output #0, segment, to '/home/knoriy/Documents/laion/split_peoples_speech/subset_split/ZBA030816CL19/ZBA_030816-CL19_DOT_mp3_00070.flac_%02d.flac':\n",
      "  Metadata:\n",
      "    comment         : Processed by SoX\n",
      "    encoder         : Lavf58.76.100\n",
      "  Stream #0:0: Audio: flac, 16000 Hz, mono, s16, 128 kb/s\n",
      "    Metadata:\n",
      "      encoder         : Lavc58.134.100 flac\n",
      "[segment @ 0x56455aebf3c0] Opening '/home/knoriy/Documents/laion/split_peoples_speech/subset_split/ZBA030816CL19/ZBA_030816-CL19_DOT_mp3_00070.flac_01.flac' for writing\n",
      "size=N/A time=00:00:14.98 bitrate=N/A speed=1.14e+03x    \n",
      "video:0kB audio:274kB subtitle:0kB other streams:0kB global headers:0kB muxing overhead: unknown\n",
      "ffmpeg version 4.4.1 Copyright (c) 2000-2021 the FFmpeg developers\n",
      "  built with gcc 10.3.0 (conda-forge gcc 10.3.0-16)\n",
      "  configuration: --prefix=/home/knoriy/anaconda3/envs/aligner --cc=/home/conda/feedstock_root/build_artifacts/ffmpeg_1653050584957/_build_env/bin/x86_64-conda-linux-gnu-cc --disable-doc --disable-openssl --enable-avresample --enable-demuxer=dash --enable-gnutls --enable-gpl --enable-hardcoded-tables --enable-libfreetype --enable-libopenh264 --enable-vaapi --enable-libx264 --enable-libx265 --enable-libaom --enable-libsvtav1 --enable-libxml2 --enable-libvpx --enable-pic --enable-pthreads --enable-shared --disable-static --enable-version3 --enable-zlib --enable-libmp3lame --pkg-config=/home/conda/feedstock_root/build_artifacts/ffmpeg_1653050584957/_build_env/bin/pkg-config\n",
      "  libavutil      56. 70.100 / 56. 70.100\n",
      "  libavcodec     58.134.100 / 58.134.100\n",
      "  libavformat    58. 76.100 / 58. 76.100\n",
      "  libavdevice    58. 13.100 / 58. 13.100\n",
      "  libavfilter     7.110.100 /  7.110.100\n",
      "  libavresample   4.  0.  0 /  4.  0.  0\n",
      "  libswscale      5.  9.100 /  5.  9.100\n",
      "  libswresample   3.  9.100 /  3.  9.100\n",
      "  libpostproc    55.  9.100 / 55.  9.100\n",
      "Input #0, flac, from '/home/knoriy/Documents/laion/split_peoples_speech/subset/ZBA030816CL19/ZBA_030816-CL19_DOT_mp3_00063.flac':\n",
      "  Metadata:\n",
      "    comment         : Processed by SoX\n",
      "    encoder         : Lavf58.29.100\n",
      "  Duration: 00:00:14.91, start: 0.000000, bitrate: 152 kb/s\n",
      "  Stream #0:0: Audio: flac, 16000 Hz, mono, s16\n",
      "Stream mapping:\n",
      "  Stream #0:0 -> #0:0 (flac (native) -> flac (native))\n",
      "Press [q] to stop, [?] for help\n",
      "[segment @ 0x564ca06ac3c0] Opening '/home/knoriy/Documents/laion/split_peoples_speech/subset_split/ZBA030816CL19/ZBA_030816-CL19_DOT_mp3_00063.flac_00.flac' for writing\n",
      "Output #0, segment, to '/home/knoriy/Documents/laion/split_peoples_speech/subset_split/ZBA030816CL19/ZBA_030816-CL19_DOT_mp3_00063.flac_%02d.flac':\n",
      "  Metadata:\n",
      "    comment         : Processed by SoX\n",
      "    encoder         : Lavf58.76.100\n",
      "  Stream #0:0: Audio: flac, 16000 Hz, mono, s16, 128 kb/s\n",
      "    Metadata:\n",
      "      encoder         : Lavc58.134.100 flac\n",
      "[segment @ 0x564ca06ac3c0] Opening '/home/knoriy/Documents/laion/split_peoples_speech/subset_split/ZBA030816CL19/ZBA_030816-CL19_DOT_mp3_00063.flac_01.flac' for writing\n",
      "size=N/A time=00:00:14.91 bitrate=N/A speed= 996x    \n",
      "video:0kB audio:269kB subtitle:0kB other streams:0kB global headers:0kB muxing overhead: unknown\n",
      "spliting flac files into 5-10 seconds:  83%|████████▎ | 19/23 [00:00<00:00, 26.55it/s]ffmpeg version 4.4.1 Copyright (c) 2000-2021 the FFmpeg developers\n",
      "  built with gcc 10.3.0 (conda-forge gcc 10.3.0-16)\n",
      "  configuration: --prefix=/home/knoriy/anaconda3/envs/aligner --cc=/home/conda/feedstock_root/build_artifacts/ffmpeg_1653050584957/_build_env/bin/x86_64-conda-linux-gnu-cc --disable-doc --disable-openssl --enable-avresample --enable-demuxer=dash --enable-gnutls --enable-gpl --enable-hardcoded-tables --enable-libfreetype --enable-libopenh264 --enable-vaapi --enable-libx264 --enable-libx265 --enable-libaom --enable-libsvtav1 --enable-libxml2 --enable-libvpx --enable-pic --enable-pthreads --enable-shared --disable-static --enable-version3 --enable-zlib --enable-libmp3lame --pkg-config=/home/conda/feedstock_root/build_artifacts/ffmpeg_1653050584957/_build_env/bin/pkg-config\n",
      "  libavutil      56. 70.100 / 56. 70.100\n",
      "  libavcodec     58.134.100 / 58.134.100\n",
      "  libavformat    58. 76.100 / 58. 76.100\n",
      "  libavdevice    58. 13.100 / 58. 13.100\n",
      "  libavfilter     7.110.100 /  7.110.100\n",
      "  libavresample   4.  0.  0 /  4.  0.  0\n",
      "  libswscale      5.  9.100 /  5.  9.100\n",
      "  libswresample   3.  9.100 /  3.  9.100\n",
      "  libpostproc    55.  9.100 / 55.  9.100\n",
      "Input #0, flac, from '/home/knoriy/Documents/laion/split_peoples_speech/subset/Zoning_Board_of_Appeals_8-23/Zoning_Board_of_Appeals_8-23_DOT_mp3_00045.flac':\n",
      "  Metadata:\n",
      "    comment         : Processed by SoX\n",
      "    encoder         : Lavf58.29.100\n",
      "  Duration: 00:00:14.77, start: 0.000000, bitrate: 143 kb/s\n",
      "  Stream #0:0: Audio: flac, 16000 Hz, mono, s16\n",
      "Stream mapping:\n",
      "  Stream #0:0 -> #0:0 (flac (native) -> flac (native))\n",
      "Press [q] to stop, [?] for help\n",
      "[segment @ 0x55db2ebe1400] Opening '/home/knoriy/Documents/laion/split_peoples_speech/subset_split/Zoning_Board_of_Appeals_8-23/Zoning_Board_of_Appeals_8-23_DOT_mp3_00045.flac_00.flac' for writing\n",
      "Output #0, segment, to '/home/knoriy/Documents/laion/split_peoples_speech/subset_split/Zoning_Board_of_Appeals_8-23/Zoning_Board_of_Appeals_8-23_DOT_mp3_00045.flac_%02d.flac':\n",
      "  Metadata:\n",
      "    comment         : Processed by SoX\n",
      "    encoder         : Lavf58.76.100\n",
      "  Stream #0:0: Audio: flac, 16000 Hz, mono, s16, 128 kb/s\n",
      "    Metadata:\n",
      "      encoder         : Lavc58.134.100 flac\n",
      "[segment @ 0x55db2ebe1400] Opening '/home/knoriy/Documents/laion/split_peoples_speech/subset_split/Zoning_Board_of_Appeals_8-23/Zoning_Board_of_Appeals_8-23_DOT_mp3_00045.flac_01.flac' for writing\n",
      "size=N/A time=00:00:14.77 bitrate=N/A speed=1.19e+03x    \n",
      "video:0kB audio:251kB subtitle:0kB other streams:0kB global headers:0kB muxing overhead: unknown\n",
      "ffmpeg version 4.4.1 Copyright (c) 2000-2021 the FFmpeg developers\n",
      "  built with gcc 10.3.0 (conda-forge gcc 10.3.0-16)\n",
      "  configuration: --prefix=/home/knoriy/anaconda3/envs/aligner --cc=/home/conda/feedstock_root/build_artifacts/ffmpeg_1653050584957/_build_env/bin/x86_64-conda-linux-gnu-cc --disable-doc --disable-openssl --enable-avresample --enable-demuxer=dash --enable-gnutls --enable-gpl --enable-hardcoded-tables --enable-libfreetype --enable-libopenh264 --enable-vaapi --enable-libx264 --enable-libx265 --enable-libaom --enable-libsvtav1 --enable-libxml2 --enable-libvpx --enable-pic --enable-pthreads --enable-shared --disable-static --enable-version3 --enable-zlib --enable-libmp3lame --pkg-config=/home/conda/feedstock_root/build_artifacts/ffmpeg_1653050584957/_build_env/bin/pkg-config\n",
      "  libavutil      56. 70.100 / 56. 70.100\n",
      "  libavcodec     58.134.100 / 58.134.100\n",
      "  libavformat    58. 76.100 / 58. 76.100\n",
      "  libavdevice    58. 13.100 / 58. 13.100\n",
      "  libavfilter     7.110.100 /  7.110.100\n",
      "  libavresample   4.  0.  0 /  4.  0.  0\n",
      "  libswscale      5.  9.100 /  5.  9.100\n",
      "  libswresample   3.  9.100 /  3.  9.100\n",
      "  libpostproc    55.  9.100 / 55.  9.100\n",
      "Input #0, flac, from '/home/knoriy/Documents/laion/split_peoples_speech/subset/ZBA120516CL19/ZBA_120516-CL19_DOT_mp3_00022.flac':\n",
      "  Metadata:\n",
      "    comment         : Processed by SoX\n",
      "    encoder         : Lavf58.29.100\n",
      "  Duration: 00:00:14.92, start: 0.000000, bitrate: 142 kb/s\n",
      "  Stream #0:0: Audio: flac, 16000 Hz, mono, s16\n",
      "Stream mapping:\n",
      "  Stream #0:0 -> #0:0 (flac (native) -> flac (native))\n",
      "Press [q] to stop, [?] for help\n",
      "[segment @ 0x55b9c13f03c0] Opening '/home/knoriy/Documents/laion/split_peoples_speech/subset_split/ZBA120516CL19/ZBA_120516-CL19_DOT_mp3_00022.flac_00.flac' for writing\n",
      "Output #0, segment, to '/home/knoriy/Documents/laion/split_peoples_speech/subset_split/ZBA120516CL19/ZBA_120516-CL19_DOT_mp3_00022.flac_%02d.flac':\n",
      "  Metadata:\n",
      "    comment         : Processed by SoX\n",
      "    encoder         : Lavf58.76.100\n",
      "  Stream #0:0: Audio: flac, 16000 Hz, mono, s16, 128 kb/s\n",
      "    Metadata:\n",
      "      encoder         : Lavc58.134.100 flac\n",
      "[segment @ 0x55b9c13f03c0] Opening '/home/knoriy/Documents/laion/split_peoples_speech/subset_split/ZBA120516CL19/ZBA_120516-CL19_DOT_mp3_00022.flac_01.flac' for writing\n",
      "size=N/A time=00:00:14.92 bitrate=N/A speed= 946x    \n",
      "video:0kB audio:252kB subtitle:0kB other streams:0kB global headers:0kB muxing overhead: unknown\n",
      "ffmpeg version 4.4.1 Copyright (c) 2000-2021 the FFmpeg developers\n",
      "  built with gcc 10.3.0 (conda-forge gcc 10.3.0-16)\n",
      "  configuration: --prefix=/home/knoriy/anaconda3/envs/aligner --cc=/home/conda/feedstock_root/build_artifacts/ffmpeg_1653050584957/_build_env/bin/x86_64-conda-linux-gnu-cc --disable-doc --disable-openssl --enable-avresample --enable-demuxer=dash --enable-gnutls --enable-gpl --enable-hardcoded-tables --enable-libfreetype --enable-libopenh264 --enable-vaapi --enable-libx264 --enable-libx265 --enable-libaom --enable-libsvtav1 --enable-libxml2 --enable-libvpx --enable-pic --enable-pthreads --enable-shared --disable-static --enable-version3 --enable-zlib --enable-libmp3lame --pkg-config=/home/conda/feedstock_root/build_artifacts/ffmpeg_1653050584957/_build_env/bin/pkg-config\n",
      "  libavutil      56. 70.100 / 56. 70.100\n",
      "  libavcodec     58.134.100 / 58.134.100\n",
      "  libavformat    58. 76.100 / 58. 76.100\n",
      "  libavdevice    58. 13.100 / 58. 13.100\n",
      "  libavfilter     7.110.100 /  7.110.100\n",
      "  libavresample   4.  0.  0 /  4.  0.  0\n",
      "  libswscale      5.  9.100 /  5.  9.100\n",
      "  libswresample   3.  9.100 /  3.  9.100\n",
      "  libpostproc    55.  9.100 / 55.  9.100\n",
      "Input #0, flac, from '/home/knoriy/Documents/laion/split_peoples_speech/subset/YourThri1948/YourThri1948_DOT_mp3_00031.flac':\n",
      "  Metadata:\n",
      "    comment         : Processed by SoX\n",
      "    encoder         : Lavf58.29.100\n",
      "  Duration: 00:00:14.59, start: 0.000000, bitrate: 152 kb/s\n",
      "  Stream #0:0: Audio: flac, 16000 Hz, mono, s16\n",
      "Stream mapping:\n",
      "  Stream #0:0 -> #0:0 (flac (native) -> flac (native))\n",
      "Press [q] to stop, [?] for help\n",
      "[segment @ 0x55a208cbd340] Opening '/home/knoriy/Documents/laion/split_peoples_speech/subset_split/YourThri1948/YourThri1948_DOT_mp3_00031.flac_00.flac' for writing\n",
      "Output #0, segment, to '/home/knoriy/Documents/laion/split_peoples_speech/subset_split/YourThri1948/YourThri1948_DOT_mp3_00031.flac_%02d.flac':\n",
      "  Metadata:\n",
      "    comment         : Processed by SoX\n",
      "    encoder         : Lavf58.76.100\n",
      "  Stream #0:0: Audio: flac, 16000 Hz, mono, s16, 128 kb/s\n",
      "    Metadata:\n",
      "      encoder         : Lavc58.134.100 flac\n",
      "[segment @ 0x55a208cbd340] Opening '/home/knoriy/Documents/laion/split_peoples_speech/subset_split/YourThri1948/YourThri1948_DOT_mp3_00031.flac_01.flac' for writing\n",
      "size=N/A time=00:00:14.59 bitrate=N/A speed= 811x    \n",
      "video:0kB audio:264kB subtitle:0kB other streams:0kB global headers:0kB muxing overhead: unknown\n",
      "spliting flac files into 5-10 seconds:  96%|█████████▌| 22/23 [00:00<00:00, 25.39it/s]ffmpeg version 4.4.1 Copyright (c) 2000-2021 the FFmpeg developers\n",
      "  built with gcc 10.3.0 (conda-forge gcc 10.3.0-16)\n",
      "  configuration: --prefix=/home/knoriy/anaconda3/envs/aligner --cc=/home/conda/feedstock_root/build_artifacts/ffmpeg_1653050584957/_build_env/bin/x86_64-conda-linux-gnu-cc --disable-doc --disable-openssl --enable-avresample --enable-demuxer=dash --enable-gnutls --enable-gpl --enable-hardcoded-tables --enable-libfreetype --enable-libopenh264 --enable-vaapi --enable-libx264 --enable-libx265 --enable-libaom --enable-libsvtav1 --enable-libxml2 --enable-libvpx --enable-pic --enable-pthreads --enable-shared --disable-static --enable-version3 --enable-zlib --enable-libmp3lame --pkg-config=/home/conda/feedstock_root/build_artifacts/ffmpeg_1653050584957/_build_env/bin/pkg-config\n",
      "  libavutil      56. 70.100 / 56. 70.100\n",
      "  libavcodec     58.134.100 / 58.134.100\n",
      "  libavformat    58. 76.100 / 58. 76.100\n",
      "  libavdevice    58. 13.100 / 58. 13.100\n",
      "  libavfilter     7.110.100 /  7.110.100\n",
      "  libavresample   4.  0.  0 /  4.  0.  0\n",
      "  libswscale      5.  9.100 /  5.  9.100\n",
      "  libswresample   3.  9.100 /  3.  9.100\n",
      "  libpostproc    55.  9.100 / 55.  9.100\n",
      "Input #0, flac, from '/home/knoriy/Documents/laion/split_peoples_speech/subset/YouandYo1948/YouandYo1948_DOT_mp3_00018.flac':\n",
      "  Metadata:\n",
      "    comment         : Processed by SoX\n",
      "    encoder         : Lavf58.29.100\n",
      "  Duration: 00:00:05.61, start: 0.000000, bitrate: 131 kb/s\n",
      "  Stream #0:0: Audio: flac, 16000 Hz, mono, s16\n",
      "Stream mapping:\n",
      "  Stream #0:0 -> #0:0 (flac (native) -> flac (native))\n",
      "Press [q] to stop, [?] for help\n",
      "[segment @ 0x561bee926340] Opening '/home/knoriy/Documents/laion/split_peoples_speech/subset_split/YouandYo1948/YouandYo1948_DOT_mp3_00018.flac_00.flac' for writing\n",
      "Output #0, segment, to '/home/knoriy/Documents/laion/split_peoples_speech/subset_split/YouandYo1948/YouandYo1948_DOT_mp3_00018.flac_%02d.flac':\n",
      "  Metadata:\n",
      "    comment         : Processed by SoX\n",
      "    encoder         : Lavf58.76.100\n",
      "  Stream #0:0: Audio: flac, 16000 Hz, mono, s16, 128 kb/s\n",
      "    Metadata:\n",
      "      encoder         : Lavc58.134.100 flac\n",
      "[segment @ 0x561bee926340] Opening '/home/knoriy/Documents/laion/split_peoples_speech/subset_split/YouandYo1948/YouandYo1948_DOT_mp3_00018.flac_01.flac' for writing\n",
      "size=N/A time=00:00:05.61 bitrate=N/A speed= 762x    \n",
      "video:0kB audio:82kB subtitle:0kB other streams:0kB global headers:0kB muxing overhead: unknown\n",
      "spliting flac files into 5-10 seconds: 100%|██████████| 23/23 [00:00<00:00, 26.41it/s]"
     ]
    },
    {
     "name": "stdout",
     "output_type": "stream",
     "text": [
      "CPU times: user 79.9 ms, sys: 19.4 ms, total: 99.3 ms\n",
      "Wall time: 876 ms\n"
     ]
    },
    {
     "name": "stderr",
     "output_type": "stream",
     "text": [
      "\n"
     ]
    }
   ],
   "source": [
    "%%time\n",
    "\n",
    "import os\n",
    "import pandas as pd\n",
    "from utils import flac_to_wav\n",
    "import tqdm\n",
    "\n",
    "def main():\n",
    "    df = pd.read_csv('/home/knoriy/Documents/laion/split_peoples_speech/subset.tsv', names=[\"audio_filepath\",\"duration\", \"shard_id\", \"text\"], header=None, sep=\"\\t\")\n",
    "    base_pps_dataset_path = '/home/knoriy/Documents/laion/split_peoples_speech/subset'\n",
    "\n",
    "    # generate_txt(df)\n",
    "\n",
    "    # for row in tqdm.tqdm(df.iloc, desc=\"Converting .flac files to .wav\"):\n",
    "    #     flac_path = os.path.join(base_pps_dataset_path, f'{row[\"audio_filepath\"]}')\n",
    "    #     wav_path = os.path.join(base_pps_dataset_path, f'{row[\"audio_filepath\"].split(\".\")[0]}.wav')\n",
    "    #     flac_to_wav(flac_path, wav_path, overwrite=True, no_log=False)\n",
    "\n",
    "    # generate_textgrids(base_pps_dataset_path)\n",
    "    split_audio('/home/knoriy/Documents/laion/split_peoples_speech/subset_textgrids', base_pps_dataset_path)\n",
    "\n",
    "main()\n"
   ]
  },
  {
   "cell_type": "code",
   "execution_count": 62,
   "metadata": {},
   "outputs": [
    {
     "name": "stdout",
     "output_type": "stream",
     "text": [
      "Collecting ffmpeg-python\n",
      "  Downloading ffmpeg_python-0.2.0-py3-none-any.whl (25 kB)\n",
      "Collecting future\n",
      "  Downloading future-0.18.2.tar.gz (829 kB)\n",
      "\u001b[2K     \u001b[38;2;114;156;31m━━━━━━━━━━━━━━━━━━━━━━━━━━━━━━━━━━━━━━━\u001b[0m \u001b[32m829.2/829.2 kB\u001b[0m \u001b[31m6.1 MB/s\u001b[0m eta \u001b[36m0:00:00\u001b[0m[31m7.3 MB/s\u001b[0m eta \u001b[36m0:00:01\u001b[0m\n",
      "\u001b[?25h  Preparing metadata (setup.py) ... \u001b[?25ldone\n",
      "\u001b[?25hBuilding wheels for collected packages: future\n",
      "  Building wheel for future (setup.py) ... \u001b[?25ldone\n",
      "\u001b[?25h  Created wheel for future: filename=future-0.18.2-py3-none-any.whl size=491058 sha256=7b172e429a2dc7171bfc24dcec9a6f71367801f02370fbf6d438c5c0257a59f9\n",
      "  Stored in directory: /home/knoriy/.cache/pip/wheels/22/73/06/557dc4f4ef68179b9d763930d6eec26b88ed7c389b19588a1c\n",
      "Successfully built future\n",
      "Installing collected packages: future, ffmpeg-python\n",
      "Successfully installed ffmpeg-python-0.2.0 future-0.18.2\n"
     ]
    }
   ],
   "source": [
    "!pip install ffmpeg-python"
   ]
  },
  {
   "cell_type": "code",
   "execution_count": 43,
   "metadata": {},
   "outputs": [
    {
     "name": "stdout",
     "output_type": "stream",
     "text": [
      "####################### None None\n"
     ]
    },
    {
     "name": "stderr",
     "output_type": "stream",
     "text": [
      "ffmpeg version 4.4.1 Copyright (c) 2000-2021 the FFmpeg developers\n",
      "  built with gcc 10.3.0 (conda-forge gcc 10.3.0-16)\n",
      "  configuration: --prefix=/home/knoriy/anaconda3/envs/aligner --cc=/home/conda/feedstock_root/build_artifacts/ffmpeg_1653050584957/_build_env/bin/x86_64-conda-linux-gnu-cc --disable-doc --disable-openssl --enable-avresample --enable-demuxer=dash --enable-gnutls --enable-gpl --enable-hardcoded-tables --enable-libfreetype --enable-libopenh264 --enable-vaapi --enable-libx264 --enable-libx265 --enable-libaom --enable-libsvtav1 --enable-libxml2 --enable-libvpx --enable-pic --enable-pthreads --enable-shared --disable-static --enable-version3 --enable-zlib --enable-libmp3lame --pkg-config=/home/conda/feedstock_root/build_artifacts/ffmpeg_1653050584957/_build_env/bin/pkg-config\n",
      "  libavutil      56. 70.100 / 56. 70.100\n",
      "  libavcodec     58.134.100 / 58.134.100\n",
      "  libavformat    58. 76.100 / 58. 76.100\n",
      "  libavdevice    58. 13.100 / 58. 13.100\n",
      "  libavfilter     7.110.100 /  7.110.100\n",
      "  libavresample   4.  0.  0 /  4.  0.  0\n",
      "  libswscale      5.  9.100 /  5.  9.100\n",
      "  libswresample   3.  9.100 /  3.  9.100\n",
      "  libpostproc    55.  9.100 / 55.  9.100\n",
      "Input #0, flac, from '/home/knoriy/Documents/laion/split_peoples_speech/subset/wwf_the_battle_of_britain/the_battle_of_britain_DOT_mp3_00002.flac':\n",
      "  Metadata:\n",
      "    comment         : Processed by SoX\n",
      "    encoder         : Lavf58.29.100\n",
      "  Duration: 00:00:14.26, start: 0.000000, bitrate: 156 kb/s\n",
      "  Stream #0:0: Audio: flac, 16000 Hz, mono, s16\n",
      "Stream mapping:\n",
      "  Stream #0:0 -> #0:0 (flac (native) -> flac (native))\n",
      "Press [q] to stop, [?] for help\n",
      "[segment @ 0x559dd251e400] Opening './test_00.flac' for writing\n",
      "Output #0, segment, to './test_%02d.flac':\n",
      "  Metadata:\n",
      "    comment         : Processed by SoX\n",
      "    encoder         : Lavf58.76.100\n",
      "  Stream #0:0: Audio: flac, 16000 Hz, mono, s16, 128 kb/s\n",
      "    Metadata:\n",
      "      encoder         : Lavc58.134.100 flac\n",
      "[segment @ 0x559dd251e400] Opening './test_01.flac' for writing\n",
      "[segment @ 0x559dd251e400] Opening './test_02.flac' for writing\n",
      "size=N/A time=00:00:14.26 bitrate=N/A speed=1.37e+03x    \n",
      "video:0kB audio:265kB subtitle:0kB other streams:0kB global headers:0kB muxing overhead: unknown\n"
     ]
    }
   ],
   "source": [
    "import ffmpeg\n",
    "\n",
    "\n",
    "# returned_path = os.system(f\"ffmpeg -i {src_wav_path} -f segment -segment_times {split_time} {dest_path}_%02d.flac\")\n",
    "\n",
    "out, a = (ffmpeg\n",
    "    .input('/home/knoriy/Documents/laion/split_peoples_speech/subset/wwf_the_battle_of_britain/the_battle_of_britain_DOT_mp3_00002.flac')\n",
    "    .output('./test_%02d.flac', f='segment', segment_time='5')\n",
    "    # .overwrite_output()\n",
    "    .run()\n",
    ")\n",
    "\n",
    "print('#######################',out,a)"
   ]
  },
  {
   "cell_type": "code",
   "execution_count": null,
   "metadata": {},
   "outputs": [],
   "source": []
  }
 ],
 "metadata": {
  "kernelspec": {
   "display_name": "Python 3.10.2 ('aligner')",
   "language": "python",
   "name": "python3"
  },
  "language_info": {
   "codemirror_mode": {
    "name": "ipython",
    "version": 3
   },
   "file_extension": ".py",
   "mimetype": "text/x-python",
   "name": "python",
   "nbconvert_exporter": "python",
   "pygments_lexer": "ipython3",
   "version": "3.10.4"
  },
  "vscode": {
   "interpreter": {
    "hash": "e21918bae0143b5a633fbf1b4c6b5406aaf2f0d47fb4c4c8eb32f4c836e66610"
   }
  }
 },
 "nbformat": 4,
 "nbformat_minor": 4
}
